<?xml version="1.0" encoding="iso-8859-1"?>
<!-- Generator: Adobe Illustrator 19.0.0, SVG Export Plug-In . SVG Version: 6.00 Build 0)  -->
<svg version="1.1" id="Capa_1" xmlns="http://www.w3.org/2000/svg" xmlns:xlink="http://www.w3.org/1999/xlink" x="0px" y="0px"
	 viewBox="0 0 512 512" style="enable-background:new 0 0 512 512;" xml:space="preserve">
<g>
	
		<linearGradient id="SVGID_1_" gradientUnits="userSpaceOnUse" x1="19.1122" y1="621.2111" x2="-45.7358" y2="621.2111" gradientTransform="matrix(8.5333 0 0 -8.5333 369.1334 5433.269)">
		<stop  offset="0" style="stop-color:#4761AC"/>
		<stop  offset="1" style="stop-color:#54C2EF"/>
	</linearGradient>
	<path style="fill:url(#SVGID_1_);" d="M213.333,132.267c0,65.98,53.487,119.467,119.467,119.467s119.467-53.487,119.467-119.467
		S398.78,12.8,332.8,12.8C266.846,12.868,213.402,66.313,213.333,132.267z M435.2,132.267c0,56.55-45.85,102.4-102.4,102.4
		s-102.4-45.85-102.4-102.4s45.85-102.4,102.4-102.4C389.325,29.927,435.14,75.742,435.2,132.267z"/>
	
		<linearGradient id="SVGID_2_" gradientUnits="userSpaceOnUse" x1="19.1122" y1="621.2111" x2="-45.7358" y2="621.2111" gradientTransform="matrix(8.5333 0 0 -8.5333 369.1334 5433.269)">
		<stop  offset="0" style="stop-color:#4761AC"/>
		<stop  offset="1" style="stop-color:#54C2EF"/>
	</linearGradient>
	<path style="fill:url(#SVGID_2_);" d="M324.267,38.4v26.453c-19.849,4.079-34.108,21.547-34.133,41.813v25.6
		c0,4.71,3.823,8.533,8.533,8.533H358.4v17.067c0,14.14-11.46,25.6-25.6,25.6s-25.6-11.46-25.6-25.6h-17.067
		c0.026,20.267,14.285,37.734,34.133,41.813v26.453h17.067V199.68c19.849-4.079,34.108-21.547,34.133-41.813v-25.6
		c0-4.71-3.823-8.533-8.533-8.533H307.2v-17.067c0-14.14,11.46-25.6,25.6-25.6s25.6,11.46,25.6,25.6h17.067
		c-0.026-20.267-14.285-37.734-34.133-41.813V38.4H324.267z"/>
	
		<linearGradient id="SVGID_3_" gradientUnits="userSpaceOnUse" x1="19.1122" y1="603.2111" x2="-45.7358" y2="603.2111" gradientTransform="matrix(8.5333 0 0 -8.5333 369.1334 5433.269)">
		<stop  offset="0" style="stop-color:#4761AC"/>
		<stop  offset="1" style="stop-color:#54C2EF"/>
	</linearGradient>
	<path style="fill:url(#SVGID_3_);" d="M469.333,72.534V89.6c14.14,0,25.6,11.46,25.609,25.591c0,0.162,0,0.324-0.009,0.495v8.047
		h-25.6V140.8h25.6v170.667H17.067V140.8h179.2v-17.067h-179.2v-8.047c0.017-14.404,11.682-26.069,26.086-26.086h153.114V72.534
		H43.153C19.328,72.559,0.026,91.862,0,115.687v237.961c0.026,23.825,19.328,43.127,43.153,43.153H204.8v85.333H93.867V499.2
		h324.267v-17.067H307.2V396.8h161.647c23.825-0.026,43.127-19.328,43.153-43.153V115.687
		C512.102,91.998,493.022,72.696,469.333,72.534z M290.133,482.134h-68.267V396.8h68.267V482.134z M468.847,379.734H43.153
		c-14.404-0.017-26.069-11.682-26.086-26.086v-25.114h477.867v25.114C494.916,368.051,483.251,379.716,468.847,379.734z"/>
	
		<linearGradient id="SVGID_4_" gradientUnits="userSpaceOnUse" x1="19.1122" y1="579.2111" x2="-45.7358" y2="579.2111" gradientTransform="matrix(8.5333 0 0 -8.5333 369.1334 5433.269)">
		<stop  offset="0" style="stop-color:#4761AC"/>
		<stop  offset="1" style="stop-color:#54C2EF"/>
	</linearGradient>
	<rect x="59.733" y="482.134" style="fill:url(#SVGID_4_);" width="17.067" height="17.067"/>
	
		<linearGradient id="SVGID_5_" gradientUnits="userSpaceOnUse" x1="19.1122" y1="579.2111" x2="-45.7358" y2="579.2111" gradientTransform="matrix(8.5333 0 0 -8.5333 369.1334 5433.269)">
		<stop  offset="0" style="stop-color:#4761AC"/>
		<stop  offset="1" style="stop-color:#54C2EF"/>
	</linearGradient>
	<rect x="435.2" y="482.134" style="fill:url(#SVGID_5_);" width="17.067" height="17.067"/>
	
		<linearGradient id="SVGID_6_" gradientUnits="userSpaceOnUse" x1="19.1122" y1="624.2111" x2="-45.7358" y2="624.2111" gradientTransform="matrix(8.5333 0 0 -8.5333 369.1334 5433.269)">
		<stop  offset="0" style="stop-color:#4761AC"/>
		<stop  offset="1" style="stop-color:#54C2EF"/>
	</linearGradient>
	<rect x="34.133" y="98.134" style="fill:url(#SVGID_6_);" width="17.067" height="17.067"/>
	
		<linearGradient id="SVGID_7_" gradientUnits="userSpaceOnUse" x1="19.1122" y1="624.2111" x2="-45.7358" y2="624.2111" gradientTransform="matrix(8.5333 0 0 -8.5333 369.1334 5433.269)">
		<stop  offset="0" style="stop-color:#4761AC"/>
		<stop  offset="1" style="stop-color:#54C2EF"/>
	</linearGradient>
	<rect x="68.267" y="98.134" style="fill:url(#SVGID_7_);" width="17.067" height="17.067"/>
	
		<linearGradient id="SVGID_8_" gradientUnits="userSpaceOnUse" x1="19.1122" y1="610.2111" x2="-45.7358" y2="610.2111" gradientTransform="matrix(8.5333 0 0 -8.5333 369.1334 5433.269)">
		<stop  offset="0" style="stop-color:#4761AC"/>
		<stop  offset="1" style="stop-color:#54C2EF"/>
	</linearGradient>
	<path style="fill:url(#SVGID_8_);" d="M42.667,174.934c-4.71,0-8.533,3.823-8.533,8.533V268.8c0,4.71,3.823,8.533,8.533,8.533
		h68.267c4.71,0,8.533-3.823,8.533-8.533v-85.333c0-4.71-3.823-8.533-8.533-8.533H42.667z M102.4,260.267H51.2V192h51.2V260.267z"/>
	
		<linearGradient id="SVGID_9_" gradientUnits="userSpaceOnUse" x1="19.1122" y1="614.2111" x2="-45.7358" y2="614.2111" gradientTransform="matrix(8.5333 0 0 -8.5333 369.1334 5433.269)">
		<stop  offset="0" style="stop-color:#4761AC"/>
		<stop  offset="1" style="stop-color:#54C2EF"/>
	</linearGradient>
	<rect x="136.533" y="183.467" style="fill:url(#SVGID_9_);" width="59.733" height="17.067"/>
	
		<linearGradient id="SVGID_10_" gradientUnits="userSpaceOnUse" x1="19.1122" y1="610.2111" x2="-45.7358" y2="610.2111" gradientTransform="matrix(8.5333 0 0 -8.5333 369.1334 5433.269)">
		<stop  offset="0" style="stop-color:#4761AC"/>
		<stop  offset="1" style="stop-color:#54C2EF"/>
	</linearGradient>
	<rect x="136.533" y="217.6" style="fill:url(#SVGID_10_);" width="59.733" height="17.067"/>
	
		<linearGradient id="SVGID_11_" gradientUnits="userSpaceOnUse" x1="19.1122" y1="606.2111" x2="-45.7358" y2="606.2111" gradientTransform="matrix(8.5333 0 0 -8.5333 369.1334 5433.269)">
		<stop  offset="0" style="stop-color:#4761AC"/>
		<stop  offset="1" style="stop-color:#54C2EF"/>
	</linearGradient>
	<rect x="136.533" y="251.734" style="fill:url(#SVGID_11_);" width="59.733" height="17.067"/>
</g>
<g>
</g>
<g>
</g>
<g>
</g>
<g>
</g>
<g>
</g>
<g>
</g>
<g>
</g>
<g>
</g>
<g>
</g>
<g>
</g>
<g>
</g>
<g>
</g>
<g>
</g>
<g>
</g>
<g>
</g>
</svg>
