<svg height="512pt" viewBox="0 -17 512.00099 512" width="512pt" xmlns="http://www.w3.org/2000/svg" xmlns:xlink="http://www.w3.org/1999/xlink"><linearGradient id="a"><stop offset="0" stop-color="#662d91"/><stop offset=".437" stop-color="#3873b3"/><stop offset="1" stop-color="#00c9dd"/></linearGradient><linearGradient id="b" gradientTransform="matrix(.990762 0 0 -.990762 0 509.816162)" gradientUnits="userSpaceOnUse" x1="-6.4597" x2="441.6611" xlink:href="#a" y1="413.3677" y2="-34.753"/><linearGradient id="c" gradientTransform="matrix(.990762 0 0 -.990762 0 509.816162)" gradientUnits="userSpaceOnUse" x1="-47.371" x2="400.7498" xlink:href="#a" y1="372.4564" y2="-75.6643"/><linearGradient id="d" gradientTransform="matrix(.990762 0 0 -.990762 0 509.816162)" gradientUnits="userSpaceOnUse" x1="-10.7661" x2="437.3546" xlink:href="#a" y1="409.0613" y2="-39.0595"/><linearGradient id="e" gradientTransform="matrix(.990762 0 0 -.990762 0 509.816162)" gradientUnits="userSpaceOnUse" x1="-45.2177" x2="402.903" xlink:href="#a" y1="374.6096" y2="-73.5111"/><linearGradient id="f" gradientTransform="matrix(.990762 0 0 -.990762 0 509.816162)" gradientUnits="userSpaceOnUse" x1="-8.6004" x2="439.5203" xlink:href="#a" y1="411.227" y2="-36.8938"/><linearGradient id="g" gradientTransform="matrix(.990762 0 0 -.990762 0 509.816162)" gradientUnits="userSpaceOnUse" x1="258.412" x2="706.5328" xlink:href="#a" y1="678.2394" y2="230.1187"/><linearGradient id="h" gradientTransform="matrix(.990762 0 0 -.990762 0 509.816162)" gradientUnits="userSpaceOnUse" x1="219.629" x2="667.7498" xlink:href="#a" y1="639.4564" y2="191.3357"/><linearGradient id="i" gradientTransform="matrix(.990762 0 0 -.990762 0 509.816162)" gradientUnits="userSpaceOnUse" x1="249.7738" x2="697.8945" xlink:href="#a" y1="669.6012" y2="221.4805"/><linearGradient id="j" gradientTransform="matrix(.990762 0 0 -.990762 0 509.816162)" gradientUnits="userSpaceOnUse" x1="217.4758" x2="665.5966" xlink:href="#a" y1="637.3032" y2="189.1825"/><linearGradient id="k" gradientTransform="matrix(.990762 0 0 -.990762 0 509.816162)" gradientUnits="userSpaceOnUse" x1="47.371" x2="495.4917" xlink:href="#a" y1="467.1984" y2="19.0776"/><linearGradient id="l" gradientTransform="matrix(.990762 0 0 -.990762 0 509.816162)" gradientUnits="userSpaceOnUse" x1="38.7673" x2="486.888" xlink:href="#a" y1="458.5947" y2="10.474"/><linearGradient id="m" gradientTransform="matrix(.990762 0 0 -.990762 0 509.816162)" gradientUnits="userSpaceOnUse" x1="-55.9839" x2="392.1369" xlink:href="#a" y1="363.8435" y2="-84.2772"/><linearGradient id="n" gradientTransform="matrix(.990762 0 0 -.990762 0 509.816162)" gradientUnits="userSpaceOnUse" x1="-107.6613" x2="340.4594" xlink:href="#a" y1="312.1661" y2="-135.9546"/><path d="m17.066406 170.667969h76.800782c4.710937 0 8.53125-3.820313 8.53125-8.535157 0-4.710937-3.820313-8.53125-8.53125-8.53125h-76.800782c-4.710937 0-8.53125 3.820313-8.53125 8.53125 0 4.714844 3.820313 8.535157 8.53125 8.535157zm0 0" fill="url(#b)"/><path d="m2.476562 202.324219c.828126.753906 1.78125 1.359375 2.8125 1.792969 1.027344.4375 2.128907.667968 3.246094.683593.570313-.015625 1.140625-.070312 1.707032-.171875.535156-.089844 1.050781-.265625 1.535156-.511718.542968-.183594 1.058594-.445313 1.535156-.765626l1.28125-1.027343c.75-.828125 1.359375-1.78125 1.789062-2.8125.4375-1.027344.671876-2.128907.683594-3.246094-.03125-2.257813-.914062-4.421875-2.472656-6.058594l-1.28125-1.023437c-.476562-.320313-.992188-.582032-1.535156-.765625-.484375-.246094-1.003906-.421875-1.535156-.511719-1.664063-.351562-3.394532-.171875-4.949219.511719-1.035157.433593-1.988281 1.039062-2.816407 1.789062-1.570312 1.628907-2.4570308 3.796875-2.476562 6.058594.015625 1.117187.246094 2.21875.683594 3.246094.410156 1.042969 1.019531 1.996093 1.792968 2.8125zm0 0" fill="url(#c)"/><path d="m119.46875 187.734375h-76.800781c-4.714844 0-8.535157 3.820313-8.535157 8.53125 0 4.714844 3.820313 8.535156 8.535157 8.535156h76.800781c4.710938 0 8.53125-3.820312 8.53125-8.535156 0-4.710937-3.820312-8.53125-8.53125-8.53125zm0 0" fill="url(#d)"/><path d="m8.535156 238.933594h76.796875c4.714844 0 8.535157-3.820313 8.535157-8.535156 0-4.710938-3.820313-8.53125-8.535157-8.53125h-76.796875c-4.714844 0-8.535156 3.820312-8.535156 8.53125 0 4.714843 3.820312 8.535156 8.535156 8.535156zm0 0" fill="url(#e)"/><path d="m113.40625 224.339844c-.75.832031-1.359375 1.785156-1.789062 2.816406-.4375 1.027344-.671876 2.128906-.683594 3.242188 0 4.714843 3.820312 8.535156 8.53125 8.535156 4.714844 0 8.535156-3.820313 8.535156-8.535156-.015625-1.113282-.246094-2.214844-.683594-3.242188-.433594-1.03125-1.039062-1.984375-1.792968-2.816406-3.421876-3.15625-8.695313-3.15625-12.117188 0zm0 0" fill="url(#f)"/><path d="m420.609375 2.476562c-3.320313 3.34375-3.296875 8.75.046875 12.066407 3.347656 3.320312 8.75 3.296875 12.070312-.050781 3.296876-3.324219 3.296876-8.691407 0-12.015626-3.429687-3.140624-8.6875-3.140624-12.117187 0zm0 0" fill="url(#g)"/><path d="m401.066406 8.535156c0-4.714844-3.820312-8.535156-8.535156-8.535156h-85.332031c-4.710938 0-8.53125 3.820312-8.53125 8.535156 0 4.710938 3.820312 8.53125 8.53125 8.53125h85.332031c4.714844 0 8.535156-3.820312 8.535156-8.53125zm0 0" fill="url(#h)"/><path d="m443.734375 51.199219c4.664063.046875 8.484375-3.695313 8.53125-8.359375.003906-.058594.003906-.117188 0-.171875-.011719-.546875-.070313-1.085938-.167969-1.621094-.082031-.566406-.253906-1.113281-.511718-1.621094-.1875-.542969-.445313-1.0625-.769532-1.535156-.316406-.449219-.65625-.875-1.023437-1.28125-3.421875-3.15625-8.695313-3.15625-12.117188 0l-1.023437 1.28125c-.324219.472656-.582032.992187-.769532 1.535156-.257812.507813-.433593 1.054688-.511718 1.621094-.101563.535156-.15625 1.074219-.171875 1.621094-.046875 4.664062 3.699219 8.484375 8.363281 8.53125zm0 0" fill="url(#i)"/><path d="m349.867188 51.199219h59.734374c4.710938 0 8.53125-3.820313 8.53125-8.53125 0-4.714844-3.820312-8.535157-8.53125-8.535157h-59.734374c-4.714844 0-8.535157 3.820313-8.535157 8.535157 0 4.710937 3.820313 8.53125 8.535157 8.53125zm0 0" fill="url(#j)"/><path d="m418.132812 392.535156c-14.136718 0-25.601562 11.460938-25.601562 25.597656 0 14.140626 11.460938 25.601563 25.601562 25.601563 14.140626 0 25.601563-11.460937 25.601563-25.601563 0-14.136718-11.460937-25.597656-25.601563-25.597656zm0 34.132813c-4.710937 0-8.53125-3.820313-8.53125-8.535157 0-4.710937 3.820313-8.53125 8.53125-8.53125 4.714844 0 8.535157 3.820313 8.535157 8.53125 0 4.714844-3.820313 8.535157-8.535157 8.535157zm0 0" fill="url(#k)"/><path d="m8.535156 392.535156h25.597656v25.597656c0 4.714844 3.820313 8.535157 8.535157 8.535157h25.597656c-.109375 28.390625 22.816406 51.496093 51.207031 51.605469 28.386719.113281 51.492188-22.8125 51.605469-51.203126.109375-28.390624-22.816406-51.496093-51.203125-51.605468-21.808594-.085938-41.296875 13.597656-48.621094 34.136718h-20.050781v-51.199218h298.664063c4.714843 0 8.535156-3.820313 8.535156-8.535156v-213.332032h104.777344l2.851562 8.53125h-56.429688c-4.714843 0-8.535156 3.820313-8.535156 8.535156v102.398438c.003906 1.6875.503906 3.332031 1.433594 4.738281l17.066406 25.597657c1.585938 2.375 4.25 3.796874 7.101563 3.796874h68.265625v8.535157h-34.132813c-4.714843 0-8.535156 3.820312-8.535156 8.53125v42.667969c0 4.714843 3.820313 8.535156 8.535156 8.535156h34.132813v51.199218h-17.75c-4.683594-32.613281-34.917969-55.253906-67.53125-50.570312-26.210938 3.765625-46.804688 24.359375-50.570313 50.570312h-89.003906c-9.5-26.550781-38.730469-40.371093-65.28125-30.867187-26.554687 9.503906-40.375 38.730469-30.871094 65.28125 9.503907 26.554687 38.734375 40.375 65.285157 30.871094 20.355468-7.285157 33.914062-26.601563 33.855468-48.21875h86.015625c4.683594 32.613281 34.917969 55.253906 67.53125 50.570312 26.214844-3.765625 46.804688-24.359375 50.570313-50.570312h26.285156c4.710938 0 8.53125-3.820313 8.53125-8.535157v-136.53125c-.050781-.433593-.136719-.863281-.253906-1.28125.015625-.308593.015625-.613281 0-.921874l-31.378906-117.675782c4.484374-1.320312 7.050781-6.023437 5.730468-10.507812-.03125-.105469-.0625-.207032-.097656-.308594l-8.53125-25.601562c-1.167969-3.5-4.449219-5.851563-8.132812-5.835938h-110.9375v-51.203125c0-4.710937-3.820313-8.53125-8.53125-8.53125h-324.265626c-4.714843 0-8.535156 3.820313-8.535156 8.53125v58.265625c0 4.714844 3.820313 8.535156 8.535156 8.535156 4.710938 0 8.53125-3.820312 8.53125-8.535156v-49.730469h307.203126v264.53125h-307.203126v-76.796875c0-4.714844-3.820312-8.535156-8.53125-8.535156-4.714843 0-8.535156 3.820312-8.535156 8.535156v76.796875h-8.53125c-4.714844 0-8.535156 3.820313-8.535156 8.535157v34.132812c0 4.714844 3.820312 8.535156 8.535156 8.535156zm110.933594 0c18.847656 0 34.132812 15.28125 34.132812 34.132813 0 18.851562-15.285156 34.132812-34.132812 34.132812-18.851562 0-34.136719-15.28125-34.136719-34.132812 0-18.851563 15.285157-34.132813 34.136719-34.132813zm102.398438 68.265625c-18.851563 0-34.132813-15.28125-34.132813-34.132812 0-18.851563 15.28125-34.132813 34.132813-34.132813 18.851562 0 34.132812 15.28125 34.132812 34.132813 0 18.851562-15.28125 34.132812-34.132812 34.132812zm196.265624 0c-23.5625 0-42.667968-19.101562-42.667968-42.667969 0-23.5625 19.105468-42.667968 42.667968-42.667968 23.566407 0 42.667969 19.105468 42.667969 42.667968-.027343 23.554688-19.113281 42.640626-42.667969 42.667969zm51.199219-119.46875v-25.597656h25.601563v25.597656zm-38.101562-68.265625-13.097657-19.625v-91.308594h44.648438l29.59375 110.933594zm-414.164063 85.335938h17.066406v17.066406h-17.066406zm0 0" fill="url(#l)"/><path d="m221.867188 443.734375c-9.425782 0-17.066407-7.640625-17.066407-17.066406s7.640625-17.066407 17.066407-17.066407c9.425781 0 17.066406 7.640626 17.066406 17.066407s-7.640625 17.066406-17.066406 17.066406zm0-17.066406" fill="url(#m)"/><path d="m119.46875 443.734375c-9.429688 0-17.070312-7.640625-17.070312-17.066406s7.640624-17.066407 17.070312-17.066407c9.425781 0 17.066406 7.640626 17.066406 17.066407s-7.644531 17.066406-17.066406 17.066406zm0-17.066406" fill="url(#n)"/></svg>