<svg height="496pt" viewBox="0 0 496 496.816" width="496pt" xmlns="http://www.w3.org/2000/svg" xmlns:xlink="http://www.w3.org/1999/xlink"><linearGradient id="a" gradientUnits="userSpaceOnUse" x1="248.408" x2="248.408" y1="496.8128" y2="0"><stop offset="0" stop-color="#9f2fff"/><stop offset="1" stop-color="#0bb1d3"/></linearGradient><path d="m444.464844 358.222656 15.542968 3.800782c-1.382812 5.664062-3.105468 11.289062-5.113281 16.746093l-15.015625-5.53125c1.800782-4.886719 3.34375-9.933593 4.585938-15.015625zm-9.953125-91.3125-3.871094 15.53125c5.847656 1.453125 11.808594 2.636719 17.773437 3.527344v39.480469c0 5.855469-.382812 11.773437-1.132812 17.589843l15.871094 2.050782c.832031-6.480469 1.253906-13.089844 1.253906-19.625v-53.6875l-7.125-.785156c-7.625-.832032-15.289062-2.199219-22.769531-4.082032zm-178.105469 37.089844c0 15.167969-10.613281 27.910156-24.8125 31.183594-3.273438 14.199218-16.019531 24.816406-31.1875 24.816406-17.644531 0-32-14.351562-32-32 0-15.167969 10.617188-27.910156 24.816406-31.183594 3.273438-14.199218 16.007813-24.816406 31.183594-24.816406 17.648438 0 32 14.351562 32 32zm-16 0c0-8.824219-7.183594-16-16-16-8.820312 0-16 7.175781-16 16v8h-8c-8.820312 0-16 7.175781-16 16s7.179688 16 16 16c8.816406 0 16-7.175781 16-16v-8h8c8.816406 0 16-7.175781 16-16zm24-227.3125 59.3125 59.3125-59.3125 59.3125-59.308594-59.3125zm-24 72 12.691406-12.6875-12.691406-12.6875-12.6875 12.6875zm48-25.375-36.6875 36.6875 12.6875 12.6875 36.691406-36.6875zm-11.308594-11.3125-12.691406-12.6875-12.6875 12.6875 12.6875 12.6875zm-138.34375 90.34375-48 48 11.308594 11.3125 48-48zm-1.378906 49.375 11.3125 11.3125 11.3125-11.3125-11.3125-11.3125zm-22.621094 22.625 11.308594 11.3125 11.3125-11.3125-11.3125-11.3125zm67.308594-44.6875-11.308594-11.3125-10.746094 10.746094 11.3125 11.308594zm-5.65625-165.65625c0 5.65625-1.574219 11.152344-4.4375 16.023438 2.75 4.71875 4.4375 10.128906 4.4375 15.976562 0 17.648438-14.351562 32-32 32-17.644531 0-32-14.351562-32-32 0-5.847656 1.691406-11.257812 4.441406-15.976562-2.863281-4.871094-4.441406-10.367188-4.441406-16.023438 0-17.648438 14.355469-32 32-32 17.648438 0 32 14.351562 32 32zm-16 32c0-8.824219-7.183594-16-16-16-8.820312 0-16 7.175781-16 16s7.179688 16 16 16c8.816406 0 16-7.175781 16-16zm0-32c0-8.824219-7.183594-16-16-16-8.820312 0-16 7.175781-16 16 0 1.519531.257812 2.863281.609375 4.121094 4.585937-2.546875 9.785156-4.121094 15.390625-4.121094 5.609375 0 10.808594 1.574219 15.394531 4.121094.351563-1.257813.605469-2.601563.605469-4.121094zm315.226562 176h20.773438v85.464844c0 72.695312-42.644531 139.34375-108.644531 169.808594l-3.355469 1.542968-3.351562-1.542968c-61.925782-28.59375-103.292969-89.042969-108.167969-156.441407l-39.511719 39.511719c-8.679688 8.679688-20.695312 13.65625-32.96875 13.65625-12.269531 0-24.285156-4.976562-32.964844-13.65625l-58.34375-58.34375h-68.691406c-22.054688 0-40-17.945312-40-40v-240c0-22.054688 17.945312-40 40-40h128c22.058594 0 40 17.945312 40 40v52.6875l23.035156-23.03125c8.679688-8.679688 20.695313-13.65625 32.964844-13.65625 12.273438 0 24.289062 4.976562 32.96875 13.65625l89.378906 89.375c8.804688 8.800781 13.652344 20.511719 13.652344 32.96875 0 7.640625-1.992188 15.078125-5.519531 21.761719 23.410156 16.902343 51.785156 26.238281 80.746093 26.238281zm-443.226562-222.527344c-9.285156 3.320313-16 12.113282-16 22.527344v240c0 10.414062 6.714844 19.207031 16 22.519531zm48 203.214844 112-112v-68.6875c0-13.230469-10.765625-24-24-24h-88zm12.691406 83.3125-15.035156-15.03125c-8.679688-8.679688-13.65625-20.695312-13.65625-32.96875v-240h-16v288zm251.308594-147.3125 35.3125 35.3125-39.75 39.753906c13.535156-4.882812 26.296875-11.882812 37.757812-20.769531 4.28125-5.398437 6.679688-12.089844 6.679688-18.984375 0-8.175781-3.183594-15.871094-8.964844-21.65625l-89.378906-89.375c-5.703125-5.695312-13.589844-8.96875-21.65625-8.96875-8.0625 0-15.949219 3.273438-21.652344 8.96875l-153.378906 153.375c-5.78125 5.785156-8.96875 13.480469-8.96875 21.65625 0 8.0625 3.265625 15.953125 8.96875 21.65625l89.378906 89.375c5.703125 5.703125 13.589844 8.96875 21.652344 8.96875 8.066406 0 15.953125-3.265625 21.65625-8.96875l50.34375-50.34375v-88zm-24 72 12.691406-12.6875-12.691406-12.6875-12.6875 12.6875zm-24-1.375-8 8v4.6875h4.777344c5.023437 0 10.015625-.375 14.992187-.929688zm48-22.625 12.691406-12.6875-12.691406-12.6875-12.6875 12.6875zm136 51.3125h-4.773438c-32.746093 0-64.890624-10.585938-91.226562-29.921875-26.335938 19.335937-58.484375 29.921875-91.222656 29.921875h-4.777344v69.464844c0 65.230468 37.554688 125.152344 96 153.679687 58.449219-28.527343 96-88.449219 96-153.679687zm-48 88v48c0 13.230469-10.765625 24-24 24h-48c-13.230469 0-24-10.769531-24-24v-48c0-10.414062 6.714844-19.207031 16-22.519531v-33.480469c0-17.648438 14.355469-32 32-32 17.648438 0 32 14.351562 32 32v33.480469c9.289062 3.3125 16 12.105469 16 22.519531zm-64-24h32v-32c0-8.824219-7.183594-16-16-16-8.820312 0-16 7.175781-16 16zm48 24c0-4.414062-3.582031-8-8-8h-48c-4.414062 0-8 3.585938-8 8v48c0 4.414062 3.585938 8 8 8h48c4.417969 0 8-3.585938 8-8zm0 0" fill="url(#a)"/></svg>